<svg xmlns="http://www.w3.org/2000/svg" xmlns:xlink="http://www.w3.org/1999/xlink" width="104" height="104" viewBox="0 0 104 104">
  <defs>
    <clipPath id="clip-submitted_request">
      <rect width="104" height="104"/>
    </clipPath>
  </defs>
  <g id="submitted_request" clip-path="url(#clip-submitted_request)">
    <rect width="104" height="104" fill="#fff"/>
    <g id="Submitted_Requests" data-name="Submitted Requests" transform="translate(15753.256 -7676.561)">
      <path id="Path_3940" data-name="Path 3940" d="M964.074,562.85a1.631,1.631,0,1,0,0,3.261h17.439a1.6,1.6,0,0,0,1.617-1.617,1.628,1.628,0,0,0-1.617-1.644Z" transform="translate(-16685.771 7196.148)" fill="#1f93d1"/>
      <path id="Path_3943" data-name="Path 3943" d="M966.291,562.552a1.579,1.579,0,0,0-1.293-.862,1.713,1.713,0,0,0-1.4.7l-3.369,5.04-.808-.62h0a1.561,1.561,0,0,0-1.86,2.507l2.129,1.59a1.481,1.481,0,0,0,.943.323l.243-.027a1.792,1.792,0,0,0,1.051-.674l4.285-6.415A1.685,1.685,0,0,0,966.291,562.552Z" transform="translate(-16695.102 7194.181)" fill="#1f93d1"/>
      <g id="Group_21548" data-name="Group 21548" transform="translate(-15744.256 7681.56)">
        <path id="Path_3934" data-name="Path 3934" d="M966.07,550.43h3.45v-3.45h-3.45Z" transform="translate(-935.347 -512.317)" fill="#1f93d1"/>
        <path id="Path_3935" data-name="Path 3935" d="M966.07,554.269h3.45v-3.45h-3.45Z" transform="translate(-935.347 -505.807)" fill="#1f93d1"/>
        <path id="Path_3936" data-name="Path 3936" d="M964.15,552.3h3.45v-3.45h-3.45Z" transform="translate(-938.602 -509.148)" fill="#1f93d1"/>
        <path id="Path_3937" data-name="Path 3937" d="M967.99,552.349h3.45V548.9h-3.45Z" transform="translate(-932.089 -509.063)" fill="#1f93d1"/>
        <path id="Path_3938" data-name="Path 3938" d="M976.37,546.6h0m-1,.566a33.719,33.719,0,0,0,11.1,3.558v5.8a13.816,13.816,0,0,1-7.844,12.156l-3.261,1.671-3.261-1.671a13.915,13.915,0,0,1-7.844-12.156v-5.8a33.722,33.722,0,0,0,11.105-3.558m0-2.992a.64.64,0,0,0-.323.081,30.518,30.518,0,0,1-12.884,3.962.587.587,0,0,0-.566.566v7.709a16.528,16.528,0,0,0,9.3,14.555l4.178,2.156a.615.615,0,0,0,.3.081.543.543,0,0,0,.3-.081l4.178-2.156a16.528,16.528,0,0,0,9.3-14.555v-7.709a.587.587,0,0,0-.566-.566,30.517,30.517,0,0,1-12.884-3.962.718.718,0,0,0-.323-.081Z" transform="translate(-942.926 -517.083)" fill="#1f93d1"/>
        <path id="Path_3939" data-name="Path 3939" d="M980.9,560.407a1.622,1.622,0,0,0-1.618-1.617h-15.2a1.631,1.631,0,1,0,0,3.261h15.2A1.628,1.628,0,0,0,980.9,560.407Z" transform="translate(-941.5 -492.295)" fill="#1f93d1"/>
        <path id="Path_3941" data-name="Path 3941" d="M1019.6,570.535V550.669a1.628,1.628,0,0,0-1.617-1.644h-13.8v-4.474a1.6,1.6,0,0,0-1.617-1.617h-6.685v-.081a8.733,8.733,0,0,0-17.466,0v.081h-6.684a1.628,1.628,0,0,0-1.644,1.617v4.474h-13.8a1.628,1.628,0,0,0-1.617,1.644v76.441a1.622,1.622,0,0,0,1.617,1.617h61.724a1.622,1.622,0,0,0,1.617-1.617v-7.493h-3.261v5.822H957.931V552.287h12.156v3.5a1.622,1.622,0,0,0,1.617,1.617h30.862a1.622,1.622,0,0,0,1.617-1.617v-3.5h12.156v18.248Zm-18.679-16.361h-27.6v-8.005h6.927a1.648,1.648,0,0,0,1.294-.647,1.738,1.738,0,0,0,.3-1.4,6.235,6.235,0,0,1-.189-1.294,5.472,5.472,0,1,1,10.943,0,4.69,4.69,0,0,1-.189,1.294,1.56,1.56,0,0,0,.3,1.4,1.688,1.688,0,0,0,1.294.647h6.927Z" transform="translate(-954.67 -534.12)" fill="#1f93d1"/>
        <path id="Path_3942" data-name="Path 3942" d="M966.291,557.312a1.543,1.543,0,0,0-1.294-.862,1.643,1.643,0,0,0-1.4.7l-3.369,5.041-.808-.62h0a1.557,1.557,0,0,0-2.184.323,1.61,1.61,0,0,0-.3,1.159,1.479,1.479,0,0,0,.62,1.024l2.129,1.59a1.483,1.483,0,0,0,.943.323l.243-.027a1.644,1.644,0,0,0,1.051-.674l4.286-6.415A1.694,1.694,0,0,0,966.291,557.312Z" transform="translate(-950.848 -496.262)" fill="#1f93d1"/>
        <path id="Path_3944" data-name="Path 3944" d="M991.521,588.775a19.622,19.622,0,1,1,19.622-19.623A19.659,19.659,0,0,1,991.521,588.775Zm0-36.576a16.927,16.927,0,1,0,16.927,16.927A16.956,16.956,0,0,0,991.521,552.2Z" transform="translate(-925.46 -507.995)" fill="#1f93d1"/>
      </g>
      <path id="Path_3945" data-name="Path 3945" d="M994.135,556.829a1.2,1.2,0,0,0-1.186,1.186v1.24a1.323,1.323,0,0,1-1.321,1.321H980.334v-3.639l-4.824,4.825,4.824,4.825v-3.639h11.914a3.06,3.06,0,0,0,3.046-3.046v-1.86A1.18,1.18,0,0,0,994.135,556.829Z" transform="translate(-16663.598 7186.85)" fill="#1f93d1" fill-rule="evenodd"/>
      <path id="Path_3946" data-name="Path 3946" d="M976.671,562.917a1.2,1.2,0,0,0,1.186-1.186v-1.24a1.323,1.323,0,0,1,1.321-1.32h11.293v3.639l4.824-4.825-4.824-4.825V556.8H978.558a3.06,3.06,0,0,0-3.046,3.046v1.86A1.164,1.164,0,0,0,976.671,562.917Z" transform="translate(-16663.596 7178.812)" fill="#1f93d1" fill-rule="evenodd"/>
    </g>
  </g>
</svg>
